<svg xmlns="http://www.w3.org/2000/svg" viewBox="0 0 1055.63 533.23"><g id="Layer_2" data-name="Layer 2"><g id="Layer_1-2" data-name="Layer 1"><path d="M702.2,204.75,621.33,8.93H555.9L654.8,240.6c16-11.78,31.85-23.8,47.4-35.85M697.29,340.1l82.45,193.13H831.8L1055.63,8.93h-63.2C8.53,948.35-181.4,54.3,291.89,54.3q53.53,0,91.83,20.08A328.24,328.24,0,0,1,455.5,125.7l40.16-43.14A394.13,394.13,0,0,0,455.5,48.71a239.51,239.51,0,0,0-45.38-26A267,267,0,0,0,357,6Q328.33,0,292.63,0C-183.62,0-98.95,841.66,697.29,340.1ZM806.51,457.38,743.67,305.2c72.77-56.28,139.94-115.45,195.38-167.5Z"/></g></g></svg>