<?xml version="1.0" encoding="UTF-8"?>
<svg id="Layer_2" data-name="Layer 2" xmlns="http://www.w3.org/2000/svg" viewBox="0 0 2100 2099.99">
  <defs>
    <style>
      .cls-1 {
        fill: #fff;
      }
    </style>
  </defs>
  <g id="Layer_1-2" data-name="Layer 1">
    <rect class="cls-1" width="2100" height="2099.99"/>
    <path d="m1204.69,988.14l-80.87-195.82h-65.43l98.9,231.67c16.02-11.78,31.85-23.8,47.39-35.85m-4.91,135.34l82.45,193.13h52.06l223.83-524.3h-63.21c-983.9,939.42-1173.83,45.37-700.54,45.37,35.69,0,66.31,6.68,91.83,20.07,25.54,13.38,49.47,30.49,71.78,51.32l40.16-43.13c-12.89-12.4-26.28-23.67-40.16-33.85-13.88-10.16-29.01-18.83-45.38-26.01-16.35-7.2-34.07-12.77-53.17-16.74-19.08-3.96-40.53-5.96-64.32-5.96-476.25,0-391.58,841.66,404.66,340.1Zm109.22,117.28l-62.84-152.18c72.77-56.28,139.94-115.45,195.38-167.5l-132.54,319.68Z"/>
  </g>
</svg>